<?xml version="1.0" encoding="UTF-8" standalone="no"?>
<!-- Uploaded to: SVG Repo, www.svgrepo.com, Generator: SVG Repo Mixer Tools -->

<svg
   width="800px"
   height="800px"
   viewBox="0 0 56 56"
   version="1.1"
   id="svg1"
   xmlns="http://www.w3.org/2000/svg"
   xmlns:svg="http://www.w3.org/2000/svg">
  <defs
     id="defs1" />
  <g
     id="g5"
     style="fill:#ffffff;fill-opacity:1">
    <path
       d="M 48.926821,20.61408 C 49.383626,20.418985 49.5758,19.95559 49.425293,19.462597 47.433972,12.48171 47.689702,12.167128 54.100608,8.1384893 54.616505,7.8008854 54.840462,7.4119037 54.628596,6.9158322 54.427308,6.4445276 53.970243,6.2876992 53.481662,6.4083885 46.003021,8.0772714 45.63291,8.2646255 41.966822,1.9990108 41.714706,1.549288 41.247112,1.367797 40.790307,1.5628927 40.308168,1.768808 40.115948,2.232097 40.255987,2.7002772 c 1.982829,7.1018974 1.824478,7.4334588 -4.766299,11.3922488 -0.435495,0.244692 -0.627673,0.708083 -0.426385,1.179388 0.201289,0.471305 0.647731,0.60326 1.146784,0.507384 7.565485,-1.676564 7.793832,-1.774088 11.536147,4.45897 0.230806,0.400132 0.698448,0.581728 1.180587,0.375812 z"
       id="path1-0"
       style="stroke-width:1.16404;fill:#ffffff;fill-opacity:1" />
    <path
       d="m 15.373979,54.495142 c 0.456805,-0.195095 0.648979,-0.65849 0.498472,-1.151483 -1.991321,-6.980887 -1.735591,-7.295469 4.675315,-11.324108 0.515897,-0.337603 0.739854,-0.726585 0.527988,-1.222657 -0.201288,-0.471304 -0.658353,-0.628133 -1.146934,-0.507443 -7.478641,1.668883 -7.848752,1.856237 -11.5148402,-4.409378 -0.252116,-0.449723 -0.71971,-0.631214 -1.176515,-0.436118 -0.482139,0.205915 -0.674359,0.669204 -0.53432,1.137384 1.982829,7.101898 1.824478,7.433459 -4.766299,11.392249 -0.435495,0.244692 -0.627673,0.708083 -0.426385,1.179388 0.201289,0.471305 0.647731,0.60326 1.146784,0.507384 7.5654852,-1.676564 7.7938322,-1.774088 11.5361472,4.45897 0.230806,0.400132 0.698448,0.581728 1.180587,0.375812 z"
       id="path1-0-7"
       style="stroke-width:1.16404;fill:#ffffff;fill-opacity:1" />
    <g
       id="g2"
       transform="matrix(-0.13192313,0,0,0.13051546,56.907594,-10.472335)"
       style="fill:#ffffff;fill-opacity:1">
      <g
         id="g1"
         transform="matrix(0.98353627,0,0,0.98904432,2.9010255,4.1614595)"
         style="fill:#ffffff;fill-opacity:1">
        <path
           d="M 247.527,264.474 204.79667,255.00848 16.198668,446.53627 c -6.5209992,6.521 -7.7836149,15.90967 -0.983188,22.14311 l 33.940954,31.11113 c 3.400738,3.11721 5.811285,4.75458 10.081285,4.75458 4.272,0 9.281527,-2.18618 12.541527,-5.44718 L 257.42768,305.8249 Z"
           id="path1-1"
           style="fill:#ffffff;fill-opacity:1" />
      </g>
    </g>
    <g
       id="g4"
       transform="matrix(0.07523907,0,0,0.07730789,-12.172988,0.39309742)"
       style="fill:#ffffff;fill-opacity:1">
      <g
         id="g3"
         transform="matrix(0.97476834,-0.2172454,0.22935668,0.97476834,-31.256668,77.911829)"
         style="fill:#ffffff;fill-opacity:1">
        <path
           d="m 508.684,231.248 -61.051,-81.81 32.78,-96.678 c 2.032,-6.01 0.489,-12.673 -4.011,-17.162 -4.5,-4.499 -11.173,-6.031 -17.162,-4.01 l -96.678,32.78 -81.81,-61.051 c -5.097,-3.804 -11.901,-4.381 -17.564,-1.5 -5.663,2.89 -9.194,8.738 -9.119,15.096 l 1.304,102.069 -83.354,58.953 c -5.184,3.674 -7.846,9.967 -6.847,16.238 0.988,6.282 5.467,11.445 11.531,13.336 l 97.494,30.292 30.292,97.494 c 1.891,6.065 7.053,10.542 13.336,11.531 0.869,0.141 1.74,0.207 2.609,0.207 5.369,0 10.466,-2.516 13.63,-6.985 l 58.953,-83.283 102.069,1.443 c 0.076,0 0.151,0 0.217,0 6.272,0 12.021,-3.661 14.879,-9.258 2.881,-5.662 2.306,-12.605 -1.498,-17.702 z"
           id="path2"
           style="fill:#ffffff;fill-opacity:1" />
      </g>
    </g>
  </g>
</svg>
