<?xml version="1.0" encoding="UTF-8"?>
<svg width="24" height="24" fill="#22c55e" version="1.1" viewBox="0 -960 24 24" xmlns="http://www.w3.org/2000/svg"><path d="m3.7949-958c-0.51148 0-0.93866 0.17108-1.2812 0.51367-0.34259 0.3426-0.51367 0.76978-0.51367 1.2812v8.2051c0 1.3833 0.26229 2.6837 0.78711 3.9004s1.2371 2.2738 2.1367 3.1738c0.89963 0.9 1.9575 1.6137 3.1738 2.1387 1.2161 0.525 2.5155 0.78711 3.8984 0.78711 1.3828 0 2.683-0.2623 3.9004-0.78711 1.2172-0.52481 2.2772-1.2371 3.1777-2.1367 0.90056-0.89963 1.6135-1.9575 2.1387-3.1738 0.52537-1.2161 0.78711-2.5155 0.78711-3.8984 0-1.3828-0.26211-2.683-0.78711-3.9004-0.525-1.2172-1.2387-2.2772-2.1387-3.1777s-1.9572-1.6135-3.1738-2.1387c-1.2167-0.52537-2.5171-0.78711-3.9004-0.78711h-8.2051zm10.205 5a6 6 0 0 1 6 6 6 6 0 0 1-6 6 6 6 0 0 1-6-6 6 6 0 0 1 6-6zm2.5 6a1.5 1.5 0 0 0-1.5 1.5 1.5 1.5 0 0 0 1.5 1.5 1.5 1.5 0 0 0 1.5-1.5 1.5 1.5 0 0 0-1.5-1.5z" fill="#22c55e"/></svg>
